<?xml version="1.0" encoding="utf-8"?>
<!-- Generator: Adobe Illustrator 16.0.0, SVG Export Plug-In . SVG Version: 6.00 Build 0)  -->
<!DOCTYPE svg PUBLIC "-//W3C//DTD SVG 1.1//EN" "http://www.w3.org/Graphics/SVG/1.1/DTD/svg11.dtd">
<svg version="1.1" id="Layer_1" xmlns="http://www.w3.org/2000/svg" xmlns:xlink="http://www.w3.org/1999/xlink" x="0px" y="0px"
	 width="166.161px" height="251.364px" viewBox="0 0 166.161 251.364" enable-background="new 0 0 166.161 251.364"
	 xml:space="preserve">
<rect y="66.811" fill="#878787" width="166.161" height="19.41"/>
<g><!--#878787-->
	<path fill="transparent" d="M155.809,67.954C152.734,31.021,121.807,2,84.08,2S15.425,31.021,12.352,67.954H155.809z"/>
</g><!--#929292-->
<path fill="transparent" d="M10.708,88.806c1.489,0.302,2.185,1.415,2.308,3.588c0.192,3.384,0.815,6.756,1.429,10.1
	c2.539,13.809,5.231,27.588,7.7,41.409c2.741,15.33,5.242,30.701,7.953,46.035c3.013,17.039,6.174,34.053,9.202,51.09
	c0.56,3.158,1.657,4.62,5.411,4.585c24.085-0.225,48.174-0.114,72.262-0.114c8.175,0,8.175,0,9.838-7.652
	c0.05-0.23,0.04-0.472,0.08-0.704c2.169-12.716,4.273-25.443,6.531-38.144c2.256-12.689,4.707-25.342,7-38.022
	c2.004-11.092,3.823-22.217,5.872-33.298c2.234-12.091,4.654-24.147,6.949-36.227c0.291-1.533,0.902-2.443,2.21-2.646H10.708z"/>
<g>
	<path fill-rule="evenodd" clip-rule="evenodd" d="M158.338,66.652c-4.732-37.217-34.303-64.716-71.032-66.554
		C48.29-1.854,14.444,25.449,8.415,66.811c-2.736,0-5.547,0-8.415,0c0,6.597,0,12.797,0,19.409c2.035,0,3.672,0.153,5.271-0.033
		C8.231,85.842,9.499,86.904,9.674,90c0.202,3.563,0.858,7.115,1.505,10.637c2.673,14.543,5.509,29.055,8.111,43.611
		c2.886,16.145,5.52,32.333,8.375,48.482c3.173,17.944,6.501,35.862,9.69,53.805c0.591,3.326,1.746,4.866,5.699,4.829
		c25.366-0.236,50.735-0.121,76.104-0.121c8.609,0,8.609,0,10.36-8.059c0.053-0.242,0.043-0.496,0.085-0.741
		c2.284-13.392,4.501-26.796,6.879-40.172c2.376-13.363,4.957-26.688,7.371-40.044c2.11-11.681,4.027-23.396,6.185-35.067
		c2.354-12.734,4.902-25.431,7.319-38.152c0.381-2.004,1.261-3.02,3.45-2.82c1.795,0.164,3.617,0.034,5.354,0.034
		c0-6.793,0-12.994,0-19.568C163.407,66.652,160.843,66.652,158.338,66.652z M86.585,5.664
		c34.152,1.709,61.648,27.279,66.049,61.885h0.278c-0.022,0.049-0.045,0.098-0.066,0.147H13.229
		C18.835,29.236,50.307,3.849,86.585,5.664z M151.779,93.397c-2.247,11.829-4.617,23.635-6.806,35.476
		c-2.006,10.852-3.788,21.746-5.75,32.607c-2.245,12.418-4.646,24.809-6.854,37.234c-2.211,12.438-4.272,24.901-6.396,37.354
		c-0.039,0.228-0.029,0.464-0.078,0.689c-1.629,7.493-1.629,7.493-9.634,7.493c-23.589,0-47.179-0.107-70.765,0.112
		c-3.676,0.034-4.75-1.397-5.299-4.49c-2.965-16.684-6.061-33.345-9.011-50.03c-2.655-15.017-5.104-30.069-7.788-45.081
		c-2.418-13.534-5.055-27.028-7.541-40.551c-0.602-3.274-1.211-6.577-1.399-9.891c-0.12-2.129-0.802-3.218-2.26-3.514h141.745
		C152.663,91.005,152.064,91.896,151.779,93.397z M162.177,82.088c-52.755,0-105.388,0-158.212,0c0-3.765,0-7.335,0-11.174
		c52.688,0,105.321,0,158.212,0C162.177,74.569,162.177,78.226,162.177,82.088z"/>
</g>
<circle fill="#5A5A5A" cx="89.834" cy="167.211" r="10.636"/>
<circle fill="#5A5A5A" cx="79.457" cy="189.341" r="7.377"/>
<circle fill="#5A5A5A" cx="77.769" cy="108.266" r="3.945"/>
<circle fill="#5A5A5A" cx="67.886" cy="137.523" r="5.938"/>
</svg>
